<?xml version="1.0" encoding="iso-8859-1"?>
<!-- Generator: Adobe Illustrator 19.1.0, SVG Export Plug-In . SVG Version: 6.00 Build 0)  -->
<svg version="1.1" id="Capa_1" xmlns="http://www.w3.org/2000/svg" xmlns:xlink="http://www.w3.org/1999/xlink" x="0px" y="0px"
	 viewBox="0 0 209.311 209.311" style="enable-background:new 0 0 209.311 209.311;" xml:space="preserve">
<g>
	<path d="M209.298,126.252l0.013-97.328l-0.006-0.405c-0.026-1.748-0.212-3.515-0.566-5.238c-0.135-0.726-0.353-1.427-0.578-2.108
		l-0.289-0.945c-0.219-0.791-0.443-1.581-0.784-2.397c-0.341-0.797-0.746-1.542-1.163-2.275l-0.469-0.88
		c-0.315-0.63-0.643-1.24-1.022-1.8c-1.073-1.607-2.288-3.091-3.631-4.435c-1.33-1.311-2.802-2.519-4.364-3.567
		c-0.623-0.405-1.26-0.746-1.909-1.073l-0.746-0.405c-0.765-0.424-1.523-0.848-2.32-1.176c-0.79-0.334-1.607-0.572-2.416-0.797
		l-0.983-0.296c-0.668-0.219-1.343-0.418-1.999-0.553c-1.459-0.289-2.976-0.469-4.563-0.533L83.056,0.004
		c-7.719,0-14.981,3.001-20.45,8.471c-5.463,5.456-8.471,12.719-8.464,20.45c0,7.719,3.001,14.987,8.464,20.45
		c5.463,5.469,12.725,8.471,20.45,8.471h27.513L8.459,159.948c-11.279,11.279-11.279,29.621,0,40.9
		c11.279,11.279,29.615,11.279,40.894-0.006L151.456,98.739l0.006,27.507c0,7.719,3.001,14.981,8.464,20.45
		c5.463,5.463,12.725,8.471,20.457,8.471c7.712,0.006,14.981-3.001,20.45-8.471C206.29,141.246,209.298,133.971,209.298,126.252z
		 M180.384,142.319c-4.3,0-8.329-1.671-11.363-4.704c-3.04-3.033-4.711-7.076-4.704-11.363V67.71L40.266,191.761
		c-6.266,6.266-16.459,6.266-22.719,0c-6.26-6.266-6.266-16.459,0-22.719L141.598,44.991H83.056c-4.293,0-8.323-1.671-11.363-4.704
		c-3.04-3.033-4.704-7.07-4.704-11.363c0-8.599,7.481-16.061,16.067-16.067h96.801l0.694,0.019c0.983,0.013,1.986,0.103,3.49,0.456
		l1.6,0.476c0.296,0.09,0.591,0.148,0.9,0.283c0.308,0.129,0.591,0.302,0.874,0.463l1.889,1.009c0.88,0.585,1.71,1.253,2.449,1.999
		c0.72,0.713,1.395,1.549,2.224,2.873l0.778,1.459c0.174,0.302,0.36,0.598,0.469,0.861c0.116,0.289,0.186,0.598,0.276,0.9
		l0.649,2.134c0.199,1.028,0.315,2.069,0.315,3.149v97.322C196.451,134.845,188.957,142.319,180.384,142.319z"/>
</g>
<g>
</g>
<g>
</g>
<g>
</g>
<g>
</g>
<g>
</g>
<g>
</g>
<g>
</g>
<g>
</g>
<g>
</g>
<g>
</g>
<g>
</g>
<g>
</g>
<g>
</g>
<g>
</g>
<g>
</g>
</svg>
